<svg width="64" height="64" viewBox="0 0 64 64" fill="none" xmlns="http://www.w3.org/2000/svg">
<rect width="64" height="64" rx="6" fill="#1877F2"/>
<g clip-path="url(#clip0_119_8240)">
<path d="M23 23H41C41.2652 23 41.5196 23.1054 41.7071 23.2929C41.8946 23.4804 42 23.7348 42 24V40C42 40.2652 41.8946 40.5196 41.7071 40.7071C41.5196 40.8946 41.2652 41 41 41H23C22.7348 41 22.4804 40.8946 22.2929 40.7071C22.1054 40.5196 22 40.2652 22 40V24C22 23.7348 22.1054 23.4804 22.2929 23.2929C22.4804 23.1054 22.7348 23 23 23ZM40 27.238L32.072 34.338L24 27.216V39H40V27.238ZM24.511 25L32.061 31.662L39.502 25H24.511Z" fill="white"/>
</g>
<defs>
<clipPath id="clip0_119_8240">
<rect width="24" height="24" fill="white" transform="translate(20 20)"/>
</clipPath>
</defs>
</svg>
