<svg width="64" height="64" viewBox="0 0 64 64" fill="none" xmlns="http://www.w3.org/2000/svg">
<rect width="64" height="64" rx="6" fill="#1877F2"/>
<g clip-path="url(#clip0_119_8247)">
<path d="M26.455 39L22 42.5V24C22 23.7348 22.1054 23.4804 22.2929 23.2929C22.4804 23.1054 22.7348 23 23 23H41C41.2652 23 41.5196 23.1054 41.7071 23.2929C41.8946 23.4804 42 23.7348 42 24V38C42 38.2652 41.8946 38.5196 41.7071 38.7071C41.5196 38.8946 41.2652 39 41 39H26.455ZM25.763 37H40V25H24V38.385L25.763 37ZM31 30H33V32H31V30ZM27 30H29V32H27V30ZM35 30H37V32H35V30Z" fill="white"/>
</g>
<defs>
<clipPath id="clip0_119_8247">
<rect width="24" height="24" fill="white" transform="translate(20 20)"/>
</clipPath>
</defs>
</svg>
